<?xml version="1.0" encoding="UTF-8" standalone="no"?>
<!DOCTYPE svg PUBLIC "-//W3C//DTD SVG 1.1//EN"
 "http://www.w3.org/Graphics/SVG/1.1/DTD/svg11.dtd">
<!-- Generated by graphviz version 2.43.0 (0)
 -->
<!-- Title: model Pages: 1 -->
<svg width="225pt" height="1339pt"
 viewBox="0.00 0.00 225.18 1339.00" xmlns="http://www.w3.org/2000/svg" xmlns:xlink="http://www.w3.org/1999/xlink">
<g id="graph0" class="graph" transform="scale(1.24 1.24) rotate(0) translate(4 1661)">
<title>model</title>
<polygon fill="white" stroke="transparent" points="-4,4 -4,-1661 276,-1661 276,4 -4,4"/>
<g id="clust1" class="cluster">
<title>cluster_2</title>
<polygon fill="none" stroke="black" stroke-dasharray="5,2" points="8,-216 8,-1617 264,-1617 264,-216 8,-216"/>
<text text-anchor="middle" x="48" y="-1603.4" font-family="Times,serif" font-size="12.00">Sequential</text>
</g>
<g id="clust2" class="cluster">
<title>cluster_3</title>
<polygon fill="none" stroke="black" stroke-dasharray="5,2" points="22,-1353 22,-1588 250,-1588 250,-1353 22,-1353"/>
<text text-anchor="middle" x="63" y="-1574.4" font-family="Times,serif" font-size="12.00">ConvBlock</text>
</g>
<g id="clust3" class="cluster">
<title>cluster_4</title>
<polygon fill="none" stroke="black" stroke-dasharray="5,2" points="16,-1266 16,-1345 256,-1345 256,-1266 16,-1266"/>
<text text-anchor="middle" x="56" y="-1331.4" font-family="Times,serif" font-size="12.00">Sequential</text>
</g>
<g id="clust4" class="cluster">
<title>cluster_5</title>
<polygon fill="none" stroke="black" stroke-dasharray="5,2" points="16,-1101 16,-1258 256,-1258 256,-1101 16,-1101"/>
<text text-anchor="middle" x="56" y="-1244.4" font-family="Times,serif" font-size="12.00">Sequential</text>
</g>
<g id="clust5" class="cluster">
<title>cluster_6</title>
<polygon fill="none" stroke="black" stroke-dasharray="5,2" points="22,-936 22,-1093 250,-1093 250,-936 22,-936"/>
<text text-anchor="middle" x="62" y="-1079.4" font-family="Times,serif" font-size="12.00">Sequential</text>
</g>
<g id="clust6" class="cluster">
<title>cluster_7</title>
<polygon fill="none" stroke="black" stroke-dasharray="5,2" points="19,-459 19,-928 253,-928 253,-459 19,-459"/>
<text text-anchor="middle" x="59" y="-914.4" font-family="Times,serif" font-size="12.00">Sequential</text>
</g>
<g id="clust7" class="cluster">
<title>cluster_8</title>
<polygon fill="none" stroke="black" stroke-dasharray="5,2" points="19,-294 19,-451 253,-451 253,-294 19,-294"/>
<text text-anchor="middle" x="59" y="-437.4" font-family="Times,serif" font-size="12.00">Sequential</text>
</g>
<!-- 0 -->
<g id="node1" class="node">
<title>0</title>
<polygon fill="lightyellow" stroke="transparent" points="213,-1657 59,-1657 59,-1625 213,-1625 213,-1657"/>
<polygon fill="none" stroke="black" points="59,-1625 59,-1657 129,-1657 129,-1625 59,-1625"/>
<text text-anchor="start" x="64" y="-1644" font-family="Linux libertine" font-size="10.00">input&#45;tensor</text>
<text text-anchor="start" x="75.5" y="-1633" font-family="Linux libertine" font-size="10.00">depth:0</text>
<polygon fill="none" stroke="black" points="129,-1625 129,-1657 213,-1657 213,-1625 129,-1625"/>
<text text-anchor="start" x="134" y="-1638.5" font-family="Linux libertine" font-size="10.00">(1, 3, 224, 224)</text>
</g>
<!-- 1 -->
<g id="node2" class="node">
<title>1</title>
<polygon fill="#c1ffc1" stroke="transparent" points="227,-1559 45,-1559 45,-1517 227,-1517 227,-1559"/>
<polygon fill="none" stroke="black" points="45,-1517 45,-1559 92,-1559 92,-1517 45,-1517"/>
<text text-anchor="start" x="50" y="-1541" font-family="Linux libertine" font-size="10.00">Conv2d</text>
<text text-anchor="start" x="50" y="-1530" font-family="Linux libertine" font-size="10.00">depth:3</text>
<polygon fill="none" stroke="black" points="92,-1538 92,-1559 140,-1559 140,-1538 92,-1538"/>
<text text-anchor="start" x="102" y="-1546" font-family="Linux libertine" font-size="10.00">input:</text>
<polygon fill="none" stroke="black" points="140,-1538 140,-1559 227,-1559 227,-1538 140,-1538"/>
<text text-anchor="start" x="145" y="-1546" font-family="Linux libertine" font-size="10.00">(1, 3, 224, 224) </text>
<polygon fill="none" stroke="black" points="92,-1517 92,-1538 140,-1538 140,-1517 92,-1517"/>
<text text-anchor="start" x="97" y="-1525" font-family="Linux libertine" font-size="10.00">output: </text>
<polygon fill="none" stroke="black" points="140,-1517 140,-1538 227,-1538 227,-1517 140,-1517"/>
<text text-anchor="start" x="145" y="-1525" font-family="Linux libertine" font-size="10.00">(1, 8, 112, 112) </text>
</g>
<!-- 0&#45;&gt;1 -->
<g id="edge1" class="edge">
<title>0&#45;&gt;1</title>
<path fill="none" stroke="black" d="M136,-1624.66C136,-1609.99 136,-1587.46 136,-1569.19"/>
<polygon fill="black" stroke="black" points="139.5,-1569.02 136,-1559.02 132.5,-1569.02 139.5,-1569.02"/>
</g>
<!-- 2 -->
<g id="node3" class="node">
<title>2</title>
<polygon fill="#c1ffc1" stroke="transparent" points="242,-1481 30,-1481 30,-1439 242,-1439 242,-1481"/>
<polygon fill="none" stroke="black" points="30,-1439 30,-1481 107,-1481 107,-1439 30,-1439"/>
<text text-anchor="start" x="35" y="-1463" font-family="Linux libertine" font-size="10.00">BatchNorm2d</text>
<text text-anchor="start" x="50" y="-1452" font-family="Linux libertine" font-size="10.00">depth:3</text>
<polygon fill="none" stroke="black" points="107,-1460 107,-1481 155,-1481 155,-1460 107,-1460"/>
<text text-anchor="start" x="117" y="-1468" font-family="Linux libertine" font-size="10.00">input:</text>
<polygon fill="none" stroke="black" points="155,-1460 155,-1481 242,-1481 242,-1460 155,-1460"/>
<text text-anchor="start" x="160" y="-1468" font-family="Linux libertine" font-size="10.00">(1, 8, 112, 112) </text>
<polygon fill="none" stroke="black" points="107,-1439 107,-1460 155,-1460 155,-1439 107,-1439"/>
<text text-anchor="start" x="112" y="-1447" font-family="Linux libertine" font-size="10.00">output: </text>
<polygon fill="none" stroke="black" points="155,-1439 155,-1460 242,-1460 242,-1439 155,-1439"/>
<text text-anchor="start" x="160" y="-1447" font-family="Linux libertine" font-size="10.00">(1, 8, 112, 112) </text>
</g>
<!-- 1&#45;&gt;2 -->
<g id="edge2" class="edge">
<title>1&#45;&gt;2</title>
<path fill="none" stroke="black" d="M136,-1516.63C136,-1508.82 136,-1499.73 136,-1491.18"/>
<polygon fill="black" stroke="black" points="139.5,-1491.16 136,-1481.16 132.5,-1491.16 139.5,-1491.16"/>
</g>
<!-- 3 -->
<g id="node4" class="node">
<title>3</title>
<polygon fill="#c1ffc1" stroke="transparent" points="227,-1403 45,-1403 45,-1361 227,-1361 227,-1403"/>
<polygon fill="none" stroke="black" points="45,-1361 45,-1403 92,-1403 92,-1361 45,-1361"/>
<text text-anchor="start" x="55.5" y="-1385" font-family="Linux libertine" font-size="10.00">ReLU</text>
<text text-anchor="start" x="50" y="-1374" font-family="Linux libertine" font-size="10.00">depth:3</text>
<polygon fill="none" stroke="black" points="92,-1382 92,-1403 140,-1403 140,-1382 92,-1382"/>
<text text-anchor="start" x="102" y="-1390" font-family="Linux libertine" font-size="10.00">input:</text>
<polygon fill="none" stroke="black" points="140,-1382 140,-1403 227,-1403 227,-1382 140,-1382"/>
<text text-anchor="start" x="145" y="-1390" font-family="Linux libertine" font-size="10.00">(1, 8, 112, 112) </text>
<polygon fill="none" stroke="black" points="92,-1361 92,-1382 140,-1382 140,-1361 92,-1361"/>
<text text-anchor="start" x="97" y="-1369" font-family="Linux libertine" font-size="10.00">output: </text>
<polygon fill="none" stroke="black" points="140,-1361 140,-1382 227,-1382 227,-1361 140,-1361"/>
<text text-anchor="start" x="145" y="-1369" font-family="Linux libertine" font-size="10.00">(1, 8, 112, 112) </text>
</g>
<!-- 2&#45;&gt;3 -->
<g id="edge3" class="edge">
<title>2&#45;&gt;3</title>
<path fill="none" stroke="black" d="M136,-1438.63C136,-1430.82 136,-1421.73 136,-1413.18"/>
<polygon fill="black" stroke="black" points="139.5,-1413.16 136,-1403.16 132.5,-1413.16 139.5,-1413.16"/>
</g>
<!-- 4 -->
<g id="node5" class="node">
<title>4</title>
<polygon fill="#c1ffc1" stroke="transparent" points="248,-1316 24,-1316 24,-1274 248,-1274 248,-1316"/>
<polygon fill="none" stroke="black" points="24,-1274 24,-1316 107,-1316 107,-1274 24,-1274"/>
<text text-anchor="start" x="29" y="-1298" font-family="Linux libertine" font-size="10.00">DwsConvBlock</text>
<text text-anchor="start" x="47" y="-1287" font-family="Linux libertine" font-size="10.00">depth:3</text>
<polygon fill="none" stroke="black" points="107,-1295 107,-1316 155,-1316 155,-1295 107,-1295"/>
<text text-anchor="start" x="117" y="-1303" font-family="Linux libertine" font-size="10.00">input:</text>
<polygon fill="none" stroke="black" points="155,-1295 155,-1316 248,-1316 248,-1295 155,-1295"/>
<text text-anchor="start" x="163" y="-1303" font-family="Linux libertine" font-size="10.00">(1, 8, 112, 112) </text>
<polygon fill="none" stroke="black" points="107,-1274 107,-1295 155,-1295 155,-1274 107,-1274"/>
<text text-anchor="start" x="112" y="-1282" font-family="Linux libertine" font-size="10.00">output: </text>
<polygon fill="none" stroke="black" points="155,-1274 155,-1295 248,-1295 248,-1274 155,-1274"/>
<text text-anchor="start" x="160" y="-1282" font-family="Linux libertine" font-size="10.00">(1, 16, 112, 112) </text>
</g>
<!-- 3&#45;&gt;4 -->
<g id="edge4" class="edge">
<title>3&#45;&gt;4</title>
<path fill="none" stroke="black" d="M136,-1360.86C136,-1350.56 136,-1337.81 136,-1326.35"/>
<polygon fill="black" stroke="black" points="139.5,-1326.29 136,-1316.29 132.5,-1326.29 139.5,-1326.29"/>
</g>
<!-- 5 -->
<g id="node6" class="node">
<title>5</title>
<polygon fill="#c1ffc1" stroke="transparent" points="248,-1229 24,-1229 24,-1187 248,-1187 248,-1229"/>
<polygon fill="none" stroke="black" points="24,-1187 24,-1229 107,-1229 107,-1187 24,-1187"/>
<text text-anchor="start" x="29" y="-1211" font-family="Linux libertine" font-size="10.00">DwsConvBlock</text>
<text text-anchor="start" x="47" y="-1200" font-family="Linux libertine" font-size="10.00">depth:3</text>
<polygon fill="none" stroke="black" points="107,-1208 107,-1229 155,-1229 155,-1208 107,-1208"/>
<text text-anchor="start" x="117" y="-1216" font-family="Linux libertine" font-size="10.00">input:</text>
<polygon fill="none" stroke="black" points="155,-1208 155,-1229 248,-1229 248,-1208 155,-1208"/>
<text text-anchor="start" x="160" y="-1216" font-family="Linux libertine" font-size="10.00">(1, 16, 112, 112) </text>
<polygon fill="none" stroke="black" points="107,-1187 107,-1208 155,-1208 155,-1187 107,-1187"/>
<text text-anchor="start" x="112" y="-1195" font-family="Linux libertine" font-size="10.00">output: </text>
<polygon fill="none" stroke="black" points="155,-1187 155,-1208 248,-1208 248,-1187 155,-1187"/>
<text text-anchor="start" x="166" y="-1195" font-family="Linux libertine" font-size="10.00">(1, 32, 56, 56) </text>
</g>
<!-- 4&#45;&gt;5 -->
<g id="edge5" class="edge">
<title>4&#45;&gt;5</title>
<path fill="none" stroke="black" d="M136,-1273.86C136,-1263.56 136,-1250.81 136,-1239.35"/>
<polygon fill="black" stroke="black" points="139.5,-1239.29 136,-1229.29 132.5,-1239.29 139.5,-1239.29"/>
</g>
<!-- 6 -->
<g id="node7" class="node">
<title>6</title>
<polygon fill="#c1ffc1" stroke="transparent" points="242,-1151 30,-1151 30,-1109 242,-1109 242,-1151"/>
<polygon fill="none" stroke="black" points="30,-1109 30,-1151 113,-1151 113,-1109 30,-1109"/>
<text text-anchor="start" x="35" y="-1133" font-family="Linux libertine" font-size="10.00">DwsConvBlock</text>
<text text-anchor="start" x="53" y="-1122" font-family="Linux libertine" font-size="10.00">depth:3</text>
<polygon fill="none" stroke="black" points="113,-1130 113,-1151 161,-1151 161,-1130 113,-1130"/>
<text text-anchor="start" x="123" y="-1138" font-family="Linux libertine" font-size="10.00">input:</text>
<polygon fill="none" stroke="black" points="161,-1130 161,-1151 242,-1151 242,-1130 161,-1130"/>
<text text-anchor="start" x="166" y="-1138" font-family="Linux libertine" font-size="10.00">(1, 32, 56, 56) </text>
<polygon fill="none" stroke="black" points="113,-1109 113,-1130 161,-1130 161,-1109 113,-1109"/>
<text text-anchor="start" x="118" y="-1117" font-family="Linux libertine" font-size="10.00">output: </text>
<polygon fill="none" stroke="black" points="161,-1109 161,-1130 242,-1130 242,-1109 161,-1109"/>
<text text-anchor="start" x="166" y="-1117" font-family="Linux libertine" font-size="10.00">(1, 32, 56, 56) </text>
</g>
<!-- 5&#45;&gt;6 -->
<g id="edge6" class="edge">
<title>5&#45;&gt;6</title>
<path fill="none" stroke="black" d="M136,-1186.63C136,-1178.82 136,-1169.73 136,-1161.18"/>
<polygon fill="black" stroke="black" points="139.5,-1161.16 136,-1151.16 132.5,-1161.16 139.5,-1161.16"/>
</g>
<!-- 7 -->
<g id="node8" class="node">
<title>7</title>
<polygon fill="#c1ffc1" stroke="transparent" points="242,-1064 30,-1064 30,-1022 242,-1022 242,-1064"/>
<polygon fill="none" stroke="black" points="30,-1022 30,-1064 113,-1064 113,-1022 30,-1022"/>
<text text-anchor="start" x="35" y="-1046" font-family="Linux libertine" font-size="10.00">DwsConvBlock</text>
<text text-anchor="start" x="53" y="-1035" font-family="Linux libertine" font-size="10.00">depth:3</text>
<polygon fill="none" stroke="black" points="113,-1043 113,-1064 161,-1064 161,-1043 113,-1043"/>
<text text-anchor="start" x="123" y="-1051" font-family="Linux libertine" font-size="10.00">input:</text>
<polygon fill="none" stroke="black" points="161,-1043 161,-1064 242,-1064 242,-1043 161,-1043"/>
<text text-anchor="start" x="166" y="-1051" font-family="Linux libertine" font-size="10.00">(1, 32, 56, 56) </text>
<polygon fill="none" stroke="black" points="113,-1022 113,-1043 161,-1043 161,-1022 113,-1022"/>
<text text-anchor="start" x="118" y="-1030" font-family="Linux libertine" font-size="10.00">output: </text>
<polygon fill="none" stroke="black" points="161,-1022 161,-1043 242,-1043 242,-1022 161,-1022"/>
<text text-anchor="start" x="166" y="-1030" font-family="Linux libertine" font-size="10.00">(1, 64, 28, 28) </text>
</g>
<!-- 6&#45;&gt;7 -->
<g id="edge7" class="edge">
<title>6&#45;&gt;7</title>
<path fill="none" stroke="black" d="M136,-1108.86C136,-1098.56 136,-1085.81 136,-1074.35"/>
<polygon fill="black" stroke="black" points="139.5,-1074.29 136,-1064.29 132.5,-1074.29 139.5,-1074.29"/>
</g>
<!-- 8 -->
<g id="node9" class="node">
<title>8</title>
<polygon fill="#c1ffc1" stroke="transparent" points="242,-986 30,-986 30,-944 242,-944 242,-986"/>
<polygon fill="none" stroke="black" points="30,-944 30,-986 113,-986 113,-944 30,-944"/>
<text text-anchor="start" x="35" y="-968" font-family="Linux libertine" font-size="10.00">DwsConvBlock</text>
<text text-anchor="start" x="53" y="-957" font-family="Linux libertine" font-size="10.00">depth:3</text>
<polygon fill="none" stroke="black" points="113,-965 113,-986 161,-986 161,-965 113,-965"/>
<text text-anchor="start" x="123" y="-973" font-family="Linux libertine" font-size="10.00">input:</text>
<polygon fill="none" stroke="black" points="161,-965 161,-986 242,-986 242,-965 161,-965"/>
<text text-anchor="start" x="166" y="-973" font-family="Linux libertine" font-size="10.00">(1, 64, 28, 28) </text>
<polygon fill="none" stroke="black" points="113,-944 113,-965 161,-965 161,-944 113,-944"/>
<text text-anchor="start" x="118" y="-952" font-family="Linux libertine" font-size="10.00">output: </text>
<polygon fill="none" stroke="black" points="161,-944 161,-965 242,-965 242,-944 161,-944"/>
<text text-anchor="start" x="166" y="-952" font-family="Linux libertine" font-size="10.00">(1, 64, 28, 28) </text>
</g>
<!-- 7&#45;&gt;8 -->
<g id="edge8" class="edge">
<title>7&#45;&gt;8</title>
<path fill="none" stroke="black" d="M136,-1021.63C136,-1013.82 136,-1004.73 136,-996.18"/>
<polygon fill="black" stroke="black" points="139.5,-996.16 136,-986.16 132.5,-996.16 139.5,-996.16"/>
</g>
<!-- 9 -->
<g id="node10" class="node">
<title>9</title>
<polygon fill="#c1ffc1" stroke="transparent" points="245,-899 27,-899 27,-857 245,-857 245,-899"/>
<polygon fill="none" stroke="black" points="27,-857 27,-899 110,-899 110,-857 27,-857"/>
<text text-anchor="start" x="32" y="-881" font-family="Linux libertine" font-size="10.00">DwsConvBlock</text>
<text text-anchor="start" x="50" y="-870" font-family="Linux libertine" font-size="10.00">depth:3</text>
<polygon fill="none" stroke="black" points="110,-878 110,-899 158,-899 158,-878 110,-878"/>
<text text-anchor="start" x="120" y="-886" font-family="Linux libertine" font-size="10.00">input:</text>
<polygon fill="none" stroke="black" points="158,-878 158,-899 245,-899 245,-878 158,-878"/>
<text text-anchor="start" x="166" y="-886" font-family="Linux libertine" font-size="10.00">(1, 64, 28, 28) </text>
<polygon fill="none" stroke="black" points="110,-857 110,-878 158,-878 158,-857 110,-857"/>
<text text-anchor="start" x="115" y="-865" font-family="Linux libertine" font-size="10.00">output: </text>
<polygon fill="none" stroke="black" points="158,-857 158,-878 245,-878 245,-857 158,-857"/>
<text text-anchor="start" x="163" y="-865" font-family="Linux libertine" font-size="10.00">(1, 128, 14, 14) </text>
</g>
<!-- 8&#45;&gt;9 -->
<g id="edge9" class="edge">
<title>8&#45;&gt;9</title>
<path fill="none" stroke="black" d="M136,-943.86C136,-933.56 136,-920.81 136,-909.35"/>
<polygon fill="black" stroke="black" points="139.5,-909.29 136,-899.29 132.5,-909.29 139.5,-909.29"/>
</g>
<!-- 10 -->
<g id="node11" class="node">
<title>10</title>
<polygon fill="#c1ffc1" stroke="transparent" points="245,-821 27,-821 27,-779 245,-779 245,-821"/>
<polygon fill="none" stroke="black" points="27,-779 27,-821 110,-821 110,-779 27,-779"/>
<text text-anchor="start" x="32" y="-803" font-family="Linux libertine" font-size="10.00">DwsConvBlock</text>
<text text-anchor="start" x="50" y="-792" font-family="Linux libertine" font-size="10.00">depth:3</text>
<polygon fill="none" stroke="black" points="110,-800 110,-821 158,-821 158,-800 110,-800"/>
<text text-anchor="start" x="120" y="-808" font-family="Linux libertine" font-size="10.00">input:</text>
<polygon fill="none" stroke="black" points="158,-800 158,-821 245,-821 245,-800 158,-800"/>
<text text-anchor="start" x="163" y="-808" font-family="Linux libertine" font-size="10.00">(1, 128, 14, 14) </text>
<polygon fill="none" stroke="black" points="110,-779 110,-800 158,-800 158,-779 110,-779"/>
<text text-anchor="start" x="115" y="-787" font-family="Linux libertine" font-size="10.00">output: </text>
<polygon fill="none" stroke="black" points="158,-779 158,-800 245,-800 245,-779 158,-779"/>
<text text-anchor="start" x="163" y="-787" font-family="Linux libertine" font-size="10.00">(1, 128, 14, 14) </text>
</g>
<!-- 9&#45;&gt;10 -->
<g id="edge10" class="edge">
<title>9&#45;&gt;10</title>
<path fill="none" stroke="black" d="M136,-856.63C136,-848.82 136,-839.73 136,-831.18"/>
<polygon fill="black" stroke="black" points="139.5,-831.16 136,-821.16 132.5,-831.16 139.5,-831.16"/>
</g>
<!-- 11 -->
<g id="node12" class="node">
<title>11</title>
<polygon fill="#c1ffc1" stroke="transparent" points="245,-743 27,-743 27,-701 245,-701 245,-743"/>
<polygon fill="none" stroke="black" points="27,-701 27,-743 110,-743 110,-701 27,-701"/>
<text text-anchor="start" x="32" y="-725" font-family="Linux libertine" font-size="10.00">DwsConvBlock</text>
<text text-anchor="start" x="50" y="-714" font-family="Linux libertine" font-size="10.00">depth:3</text>
<polygon fill="none" stroke="black" points="110,-722 110,-743 158,-743 158,-722 110,-722"/>
<text text-anchor="start" x="120" y="-730" font-family="Linux libertine" font-size="10.00">input:</text>
<polygon fill="none" stroke="black" points="158,-722 158,-743 245,-743 245,-722 158,-722"/>
<text text-anchor="start" x="163" y="-730" font-family="Linux libertine" font-size="10.00">(1, 128, 14, 14) </text>
<polygon fill="none" stroke="black" points="110,-701 110,-722 158,-722 158,-701 110,-701"/>
<text text-anchor="start" x="115" y="-709" font-family="Linux libertine" font-size="10.00">output: </text>
<polygon fill="none" stroke="black" points="158,-701 158,-722 245,-722 245,-701 158,-701"/>
<text text-anchor="start" x="163" y="-709" font-family="Linux libertine" font-size="10.00">(1, 128, 14, 14) </text>
</g>
<!-- 10&#45;&gt;11 -->
<g id="edge11" class="edge">
<title>10&#45;&gt;11</title>
<path fill="none" stroke="black" d="M136,-778.63C136,-770.82 136,-761.73 136,-753.18"/>
<polygon fill="black" stroke="black" points="139.5,-753.16 136,-743.16 132.5,-753.16 139.5,-753.16"/>
</g>
<!-- 12 -->
<g id="node13" class="node">
<title>12</title>
<polygon fill="#c1ffc1" stroke="transparent" points="245,-665 27,-665 27,-623 245,-623 245,-665"/>
<polygon fill="none" stroke="black" points="27,-623 27,-665 110,-665 110,-623 27,-623"/>
<text text-anchor="start" x="32" y="-647" font-family="Linux libertine" font-size="10.00">DwsConvBlock</text>
<text text-anchor="start" x="50" y="-636" font-family="Linux libertine" font-size="10.00">depth:3</text>
<polygon fill="none" stroke="black" points="110,-644 110,-665 158,-665 158,-644 110,-644"/>
<text text-anchor="start" x="120" y="-652" font-family="Linux libertine" font-size="10.00">input:</text>
<polygon fill="none" stroke="black" points="158,-644 158,-665 245,-665 245,-644 158,-644"/>
<text text-anchor="start" x="163" y="-652" font-family="Linux libertine" font-size="10.00">(1, 128, 14, 14) </text>
<polygon fill="none" stroke="black" points="110,-623 110,-644 158,-644 158,-623 110,-623"/>
<text text-anchor="start" x="115" y="-631" font-family="Linux libertine" font-size="10.00">output: </text>
<polygon fill="none" stroke="black" points="158,-623 158,-644 245,-644 245,-623 158,-623"/>
<text text-anchor="start" x="163" y="-631" font-family="Linux libertine" font-size="10.00">(1, 128, 14, 14) </text>
</g>
<!-- 11&#45;&gt;12 -->
<g id="edge12" class="edge">
<title>11&#45;&gt;12</title>
<path fill="none" stroke="black" d="M136,-700.63C136,-692.82 136,-683.73 136,-675.18"/>
<polygon fill="black" stroke="black" points="139.5,-675.16 136,-665.16 132.5,-675.16 139.5,-675.16"/>
</g>
<!-- 13 -->
<g id="node14" class="node">
<title>13</title>
<polygon fill="#c1ffc1" stroke="transparent" points="245,-587 27,-587 27,-545 245,-545 245,-587"/>
<polygon fill="none" stroke="black" points="27,-545 27,-587 110,-587 110,-545 27,-545"/>
<text text-anchor="start" x="32" y="-569" font-family="Linux libertine" font-size="10.00">DwsConvBlock</text>
<text text-anchor="start" x="50" y="-558" font-family="Linux libertine" font-size="10.00">depth:3</text>
<polygon fill="none" stroke="black" points="110,-566 110,-587 158,-587 158,-566 110,-566"/>
<text text-anchor="start" x="120" y="-574" font-family="Linux libertine" font-size="10.00">input:</text>
<polygon fill="none" stroke="black" points="158,-566 158,-587 245,-587 245,-566 158,-566"/>
<text text-anchor="start" x="163" y="-574" font-family="Linux libertine" font-size="10.00">(1, 128, 14, 14) </text>
<polygon fill="none" stroke="black" points="110,-545 110,-566 158,-566 158,-545 110,-545"/>
<text text-anchor="start" x="115" y="-553" font-family="Linux libertine" font-size="10.00">output: </text>
<polygon fill="none" stroke="black" points="158,-545 158,-566 245,-566 245,-545 158,-545"/>
<text text-anchor="start" x="163" y="-553" font-family="Linux libertine" font-size="10.00">(1, 128, 14, 14) </text>
</g>
<!-- 12&#45;&gt;13 -->
<g id="edge13" class="edge">
<title>12&#45;&gt;13</title>
<path fill="none" stroke="black" d="M136,-622.63C136,-614.82 136,-605.73 136,-597.18"/>
<polygon fill="black" stroke="black" points="139.5,-597.16 136,-587.16 132.5,-597.16 139.5,-597.16"/>
</g>
<!-- 14 -->
<g id="node15" class="node">
<title>14</title>
<polygon fill="#c1ffc1" stroke="transparent" points="245,-509 27,-509 27,-467 245,-467 245,-509"/>
<polygon fill="none" stroke="black" points="27,-467 27,-509 110,-509 110,-467 27,-467"/>
<text text-anchor="start" x="32" y="-491" font-family="Linux libertine" font-size="10.00">DwsConvBlock</text>
<text text-anchor="start" x="50" y="-480" font-family="Linux libertine" font-size="10.00">depth:3</text>
<polygon fill="none" stroke="black" points="110,-488 110,-509 158,-509 158,-488 110,-488"/>
<text text-anchor="start" x="120" y="-496" font-family="Linux libertine" font-size="10.00">input:</text>
<polygon fill="none" stroke="black" points="158,-488 158,-509 245,-509 245,-488 158,-488"/>
<text text-anchor="start" x="163" y="-496" font-family="Linux libertine" font-size="10.00">(1, 128, 14, 14) </text>
<polygon fill="none" stroke="black" points="110,-467 110,-488 158,-488 158,-467 110,-467"/>
<text text-anchor="start" x="115" y="-475" font-family="Linux libertine" font-size="10.00">output: </text>
<polygon fill="none" stroke="black" points="158,-467 158,-488 245,-488 245,-467 158,-467"/>
<text text-anchor="start" x="163" y="-475" font-family="Linux libertine" font-size="10.00">(1, 128, 14, 14) </text>
</g>
<!-- 13&#45;&gt;14 -->
<g id="edge14" class="edge">
<title>13&#45;&gt;14</title>
<path fill="none" stroke="black" d="M136,-544.63C136,-536.82 136,-527.73 136,-519.18"/>
<polygon fill="black" stroke="black" points="139.5,-519.16 136,-509.16 132.5,-519.16 139.5,-519.16"/>
</g>
<!-- 15 -->
<g id="node16" class="node">
<title>15</title>
<polygon fill="#c1ffc1" stroke="transparent" points="245,-422 27,-422 27,-380 245,-380 245,-422"/>
<polygon fill="none" stroke="black" points="27,-380 27,-422 110,-422 110,-380 27,-380"/>
<text text-anchor="start" x="32" y="-404" font-family="Linux libertine" font-size="10.00">DwsConvBlock</text>
<text text-anchor="start" x="50" y="-393" font-family="Linux libertine" font-size="10.00">depth:3</text>
<polygon fill="none" stroke="black" points="110,-401 110,-422 158,-422 158,-401 110,-401"/>
<text text-anchor="start" x="120" y="-409" font-family="Linux libertine" font-size="10.00">input:</text>
<polygon fill="none" stroke="black" points="158,-401 158,-422 245,-422 245,-401 158,-401"/>
<text text-anchor="start" x="163" y="-409" font-family="Linux libertine" font-size="10.00">(1, 128, 14, 14) </text>
<polygon fill="none" stroke="black" points="110,-380 110,-401 158,-401 158,-380 110,-380"/>
<text text-anchor="start" x="115" y="-388" font-family="Linux libertine" font-size="10.00">output: </text>
<polygon fill="none" stroke="black" points="158,-380 158,-401 245,-401 245,-380 158,-380"/>
<text text-anchor="start" x="169" y="-388" font-family="Linux libertine" font-size="10.00">(1, 256, 7, 7) </text>
</g>
<!-- 14&#45;&gt;15 -->
<g id="edge15" class="edge">
<title>14&#45;&gt;15</title>
<path fill="none" stroke="black" d="M136,-466.86C136,-456.56 136,-443.81 136,-432.35"/>
<polygon fill="black" stroke="black" points="139.5,-432.29 136,-422.29 132.5,-432.29 139.5,-432.29"/>
</g>
<!-- 16 -->
<g id="node17" class="node">
<title>16</title>
<polygon fill="#c1ffc1" stroke="transparent" points="239,-344 33,-344 33,-302 239,-302 239,-344"/>
<polygon fill="none" stroke="black" points="33,-302 33,-344 116,-344 116,-302 33,-302"/>
<text text-anchor="start" x="38" y="-326" font-family="Linux libertine" font-size="10.00">DwsConvBlock</text>
<text text-anchor="start" x="56" y="-315" font-family="Linux libertine" font-size="10.00">depth:3</text>
<polygon fill="none" stroke="black" points="116,-323 116,-344 164,-344 164,-323 116,-323"/>
<text text-anchor="start" x="126" y="-331" font-family="Linux libertine" font-size="10.00">input:</text>
<polygon fill="none" stroke="black" points="164,-323 164,-344 239,-344 239,-323 164,-323"/>
<text text-anchor="start" x="169" y="-331" font-family="Linux libertine" font-size="10.00">(1, 256, 7, 7) </text>
<polygon fill="none" stroke="black" points="116,-302 116,-323 164,-323 164,-302 116,-302"/>
<text text-anchor="start" x="121" y="-310" font-family="Linux libertine" font-size="10.00">output: </text>
<polygon fill="none" stroke="black" points="164,-302 164,-323 239,-323 239,-302 164,-302"/>
<text text-anchor="start" x="169" y="-310" font-family="Linux libertine" font-size="10.00">(1, 256, 7, 7) </text>
</g>
<!-- 15&#45;&gt;16 -->
<g id="edge16" class="edge">
<title>15&#45;&gt;16</title>
<path fill="none" stroke="black" d="M136,-379.63C136,-371.82 136,-362.73 136,-354.18"/>
<polygon fill="black" stroke="black" points="139.5,-354.16 136,-344.16 132.5,-354.16 139.5,-354.16"/>
</g>
<!-- 17 -->
<g id="node18" class="node">
<title>17</title>
<polygon fill="#c1ffc1" stroke="transparent" points="228.5,-266 43.5,-266 43.5,-224 228.5,-224 228.5,-266"/>
<polygon fill="none" stroke="black" points="44,-224 44,-266 106,-266 106,-224 44,-224"/>
<text text-anchor="start" x="49" y="-248" font-family="Linux libertine" font-size="10.00">AvgPool2d</text>
<text text-anchor="start" x="56.5" y="-237" font-family="Linux libertine" font-size="10.00">depth:2</text>
<polygon fill="none" stroke="black" points="106,-245 106,-266 154,-266 154,-245 106,-245"/>
<text text-anchor="start" x="116" y="-253" font-family="Linux libertine" font-size="10.00">input:</text>
<polygon fill="none" stroke="black" points="154,-245 154,-266 229,-266 229,-245 154,-245"/>
<text text-anchor="start" x="159" y="-253" font-family="Linux libertine" font-size="10.00">(1, 256, 7, 7) </text>
<polygon fill="none" stroke="black" points="106,-224 106,-245 154,-245 154,-224 106,-224"/>
<text text-anchor="start" x="111" y="-232" font-family="Linux libertine" font-size="10.00">output: </text>
<polygon fill="none" stroke="black" points="154,-224 154,-245 229,-245 229,-224 154,-224"/>
<text text-anchor="start" x="159" y="-232" font-family="Linux libertine" font-size="10.00">(1, 256, 1, 1) </text>
</g>
<!-- 16&#45;&gt;17 -->
<g id="edge17" class="edge">
<title>16&#45;&gt;17</title>
<path fill="none" stroke="black" d="M136,-301.63C136,-293.82 136,-284.73 136,-276.18"/>
<polygon fill="black" stroke="black" points="139.5,-276.16 136,-266.16 132.5,-276.16 139.5,-276.16"/>
</g>
<!-- 18 -->
<g id="node19" class="node">
<title>18</title>
<polygon fill="aliceblue" stroke="transparent" points="221,-188 51,-188 51,-146 221,-146 221,-188"/>
<polygon fill="none" stroke="black" points="51,-146 51,-188 98,-188 98,-146 51,-146"/>
<text text-anchor="start" x="62.5" y="-170" font-family="Linux libertine" font-size="10.00">view</text>
<text text-anchor="start" x="56" y="-159" font-family="Linux libertine" font-size="10.00">depth:1</text>
<polygon fill="none" stroke="black" points="98,-167 98,-188 146,-188 146,-167 98,-167"/>
<text text-anchor="start" x="108" y="-175" font-family="Linux libertine" font-size="10.00">input:</text>
<polygon fill="none" stroke="black" points="146,-167 146,-188 221,-188 221,-167 146,-167"/>
<text text-anchor="start" x="151" y="-175" font-family="Linux libertine" font-size="10.00">(1, 256, 1, 1) </text>
<polygon fill="none" stroke="black" points="98,-146 98,-167 146,-167 146,-146 98,-146"/>
<text text-anchor="start" x="103" y="-154" font-family="Linux libertine" font-size="10.00">output: </text>
<polygon fill="none" stroke="black" points="146,-146 146,-167 221,-167 221,-146 146,-146"/>
<text text-anchor="start" x="163" y="-154" font-family="Linux libertine" font-size="10.00">(1, 256) </text>
</g>
<!-- 17&#45;&gt;18 -->
<g id="edge18" class="edge">
<title>17&#45;&gt;18</title>
<path fill="none" stroke="black" d="M136,-223.63C136,-215.82 136,-206.73 136,-198.18"/>
<polygon fill="black" stroke="black" points="139.5,-198.16 136,-188.16 132.5,-198.16 139.5,-198.16"/>
</g>
<!-- 19 -->
<g id="node20" class="node">
<title>19</title>
<polygon fill="#c1ffc1" stroke="transparent" points="209,-110 63,-110 63,-68 209,-68 209,-110"/>
<polygon fill="none" stroke="black" points="63,-68 63,-110 110,-110 110,-68 63,-68"/>
<text text-anchor="start" x="71" y="-92" font-family="Linux libertine" font-size="10.00">Linear</text>
<text text-anchor="start" x="68" y="-81" font-family="Linux libertine" font-size="10.00">depth:1</text>
<polygon fill="none" stroke="black" points="110,-89 110,-110 158,-110 158,-89 110,-89"/>
<text text-anchor="start" x="120" y="-97" font-family="Linux libertine" font-size="10.00">input:</text>
<polygon fill="none" stroke="black" points="158,-89 158,-110 209,-110 209,-89 158,-89"/>
<text text-anchor="start" x="163" y="-97" font-family="Linux libertine" font-size="10.00">(1, 256) </text>
<polygon fill="none" stroke="black" points="110,-68 110,-89 158,-89 158,-68 110,-68"/>
<text text-anchor="start" x="115" y="-76" font-family="Linux libertine" font-size="10.00">output: </text>
<polygon fill="none" stroke="black" points="158,-68 158,-89 209,-89 209,-68 158,-68"/>
<text text-anchor="start" x="169" y="-76" font-family="Linux libertine" font-size="10.00">(1, 2) </text>
</g>
<!-- 18&#45;&gt;19 -->
<g id="edge19" class="edge">
<title>18&#45;&gt;19</title>
<path fill="none" stroke="black" d="M136,-145.63C136,-137.82 136,-128.73 136,-120.18"/>
<polygon fill="black" stroke="black" points="139.5,-120.16 136,-110.16 132.5,-120.16 139.5,-120.16"/>
</g>
<!-- 20 -->
<g id="node21" class="node">
<title>20</title>
<polygon fill="lightyellow" stroke="transparent" points="192.5,-32 79.5,-32 79.5,0 192.5,0 192.5,-32"/>
<polygon fill="none" stroke="black" points="80,0 80,-32 157,-32 157,0 80,0"/>
<text text-anchor="start" x="85" y="-19" font-family="Linux libertine" font-size="10.00">output&#45;tensor</text>
<text text-anchor="start" x="100" y="-8" font-family="Linux libertine" font-size="10.00">depth:0</text>
<polygon fill="none" stroke="black" points="157,0 157,-32 193,-32 193,0 157,0"/>
<text text-anchor="start" x="162" y="-13.5" font-family="Linux libertine" font-size="10.00">(1, 2)</text>
</g>
<!-- 19&#45;&gt;20 -->
<g id="edge20" class="edge">
<title>19&#45;&gt;20</title>
<path fill="none" stroke="black" d="M136,-67.84C136,-59.89 136,-50.66 136,-42.26"/>
<polygon fill="black" stroke="black" points="139.5,-42.24 136,-32.24 132.5,-42.24 139.5,-42.24"/>
</g>
</g>
</svg>
